<?xml version="1.0" standalone="no"?>
<!DOCTYPE svg PUBLIC "-//W3C//DTD SVG 20010904//EN"
 "http://www.w3.org/TR/2001/REC-SVG-20010904/DTD/svg10.dtd">
<svg version="1.0" xmlns="http://www.w3.org/2000/svg"
 width="320.000000pt" height="320.000000pt" viewBox="0 0 320.000000 320.000000"
 preserveAspectRatio="xMidYMid meet">

<g transform="translate(0.000000,320.000000) scale(0.100000,-0.100000)"
fill="#000000" stroke="none">
<path d="M0 1600 l0 -1600 1600 0 1600 0 0 1600 0 1600 -1600 0 -1600 0 0
-1600z m1623 429 l2 -734 493 -3 492 -2 0 -60 0 -60 -489 0 -490 0 -6 -52 c-3
-29 -5 -209 -3 -401 l3 -347 -62 0 -63 0 0 400 0 400 -576 0 c-352 0 -574 4
-572 9 2 5 263 335 580 733 318 398 601 753 630 790 29 37 54 66 55 64 2 -2 4
-333 6 -737z m662 726 c110 -33 217 -135 250 -242 25 -80 17 -182 -22 -264
-32 -69 -49 -91 -313 -404 -96 -114 -185 -221 -198 -236 l-23 -29 315 0 316 0
0 -60 0 -60 -440 0 c-417 0 -440 1 -431 18 6 9 45 58 88 108 43 50 119 140
170 200 50 60 148 176 217 258 70 82 140 170 156 195 31 46 60 127 60 167 0
43 -34 125 -68 164 -41 49 -69 64 -144 80 -151 31 -299 -66 -323 -212 l-7 -38
-60 0 -61 0 7 47 c19 143 146 277 294 312 60 14 160 12 217 -4z"/>
<path d="M1050 1864 c-245 -306 -446 -561 -448 -565 -2 -5 199 -9 447 -9 l451
0 0 565 c0 311 -1 565 -3 565 -1 0 -203 -250 -447 -556z"/>
</g>
</svg>
