<?xml version="1.0" standalone="no"?>
<!DOCTYPE svg PUBLIC "-//W3C//DTD SVG 20010904//EN"
 "http://www.w3.org/TR/2001/REC-SVG-20010904/DTD/svg10.dtd">
<svg version="1.0" xmlns="http://www.w3.org/2000/svg"
 width="48.000000pt" height="48.000000pt" viewBox="0 0 48.000000 48.000000"
 preserveAspectRatio="xMidYMid meet">

<g transform="translate(0.000000,48.000000) scale(0.100000,-0.100000)"
fill="#000000" stroke="none">
<path d="M181 440 c-95 -32 -153 -107 -153 -198 1 -98 41 -160 132 -201 108
-49 223 -2 276 114 29 61 30 106 3 165 -50 110 -150 157 -258 120z m129 -121
c36 -28 65 -56 65 -63 0 -7 -15 -10 -42 -8 -37 3 -47 -1 -73 -26 -18 -18 -30
-41 -30 -56 0 -24 -3 -26 -44 -26 l-43 0 -7 50 c-5 34 -11 50 -21 50 -32 0
-12 29 52 79 37 28 69 51 72 51 4 0 35 -23 71 -51z m0 -95 c0 -3 -9 -17 -20
-31 -11 -14 -20 -30 -20 -34 0 -5 9 -9 20 -9 15 0 20 -7 20 -25 0 -21 -5 -25
-28 -25 -26 0 -28 3 -30 45 -1 34 4 51 18 65 19 19 40 26 40 14z m69 -41 c1
-44 -18 -83 -41 -83 -13 0 -9 20 7 36 8 9 15 22 15 29 0 9 -6 12 -15 9 -11 -5
-15 1 -15 25 0 26 4 31 23 31 21 0 24 -5 26 -47z"/>
</g>
</svg>
